<?xml version="1.0" encoding="UTF-8" standalone="no"?>
<!-- Created with Inkscape (http://www.inkscape.org/) -->

<svg
   width="100mm"
   height="100mm"
   viewBox="0 0 100 100"
   version="1.1"
   id="svg5"
   xml:space="preserve"
   sodipodi:docname="2024-logo-day.svg"
   inkscape:version="1.3.2 (091e20ef0f, 2023-11-25, custom)"
   xmlns:inkscape="http://www.inkscape.org/namespaces/inkscape"
   xmlns:sodipodi="http://sodipodi.sourceforge.net/DTD/sodipodi-0.dtd"
   xmlns="http://www.w3.org/2000/svg"
   xmlns:svg="http://www.w3.org/2000/svg"
   xmlns:rdf="http://www.w3.org/1999/02/22-rdf-syntax-ns#"
   xmlns:cc="http://creativecommons.org/ns#"><sodipodi:namedview
     id="namedview1"
     pagecolor="#ffffff"
     bordercolor="#111111"
     borderopacity="1"
     inkscape:showpageshadow="0"
     inkscape:pageopacity="0"
     inkscape:pagecheckerboard="1"
     inkscape:deskcolor="#d1d1d1"
     inkscape:document-units="mm"
     inkscape:zoom="2.174875"
     inkscape:cx="188.74648"
     inkscape:cy="188.74648"
     inkscape:window-width="2532"
     inkscape:window-height="1377"
     inkscape:window-x="0"
     inkscape:window-y="0"
     inkscape:window-maximized="1"
     inkscape:current-layer="svg5" /><defs
     id="defs2"><rect
       x="1.0008111"
       y="132.80748"
       width="376.92537"
       height="112.31425"
       id="rect34611" /><rect
       x="27.358521"
       y="169.602"
       width="380.62218"
       height="48.556696"
       id="rect34356" /><clipPath
       clipPathUnits="userSpaceOnUse"
       id="clipPath5864"><path
         d="m 0,7190 v 9010 H 9010 V 7190 Z"
         id="path5862" /></clipPath><clipPath
       clipPathUnits="userSpaceOnUse"
       id="clipPath5876"><path
         d="m 8990,7190 v 9010 h 9020 V 7190 Z"
         id="path5874" /></clipPath><clipPath
       clipPathUnits="userSpaceOnUse"
       id="clipPath5888"><path
         d="m 17990,7190 v 9010 h 9010 V 7190 Z"
         id="path5886" /></clipPath><clipPath
       clipPathUnits="userSpaceOnUse"
       id="clipPath5900"><path
         d="M 0,7210 H 11530 V 0 H 0 Z"
         id="path5898" /></clipPath><clipPath
       clipPathUnits="userSpaceOnUse"
       id="clipPath5912"><path
         d="M 11510,0 V 7210 H 23050 V 0 Z"
         id="path5910" /></clipPath><clipPath
       clipPathUnits="userSpaceOnUse"
       id="clipPath5924"><path
         d="m 23030,0 v 7210 h 3970 V 0 Z"
         id="path5922" /></clipPath><clipPath
       clipPathUnits="userSpaceOnUse"
       id="clipPath5864-6"><path
         d="m 0,7190 v 9010 H 9010 V 7190 Z"
         id="path5862-7" /></clipPath><clipPath
       clipPathUnits="userSpaceOnUse"
       id="clipPath5876-5"><path
         d="m 8990,7190 v 9010 h 9020 V 7190 Z"
         id="path5874-3" /></clipPath><clipPath
       clipPathUnits="userSpaceOnUse"
       id="clipPath5888-5"><path
         d="m 17990,7190 v 9010 h 9010 V 7190 Z"
         id="path5886-6" /></clipPath><clipPath
       clipPathUnits="userSpaceOnUse"
       id="clipPath5900-2"><path
         d="M 0,7210 H 11530 V 0 H 0 Z"
         id="path5898-9" /></clipPath><clipPath
       clipPathUnits="userSpaceOnUse"
       id="clipPath5912-1"><path
         d="M 11510,0 V 7210 H 23050 V 0 Z"
         id="path5910-2" /></clipPath><clipPath
       clipPathUnits="userSpaceOnUse"
       id="clipPath5924-7"><path
         d="m 23030,0 v 7210 h 3970 V 0 Z"
         id="path5922-0" /></clipPath><linearGradient
       gradientTransform="matrix(1,0,0,-1,0,24)"
       gradientUnits="userSpaceOnUse"
       id="SVGID_1_"
       x1="1.0856"
       x2="22.9044"
       y1="17.089701"
       y2="6.9102998"><stop
         offset="0"
         style="stop-color:#5e81ac;stop-opacity:0.2;"
         id="stop2" /><stop
         offset="1"
         style="stop-color:#FFFFFF;stop-opacity:0"
         id="stop3" /></linearGradient></defs><rect
     style="display:inline;fill:#eceff4;fill-opacity:1;stroke-width:1.73894;paint-order:fill markers stroke"
     id="rect4131"
     x="0"
     y="0"
     width="100"
     height="100"
     inkscape:label="background" /><path
     id="path4182"
     style="fill:#3b4252;fill-opacity:1;stroke-width:0.406901"
     d="m 35.274284,18.704287 c -2.823889,0 -5.395834,1.155332 -7.255371,3.018937 -1.863606,1.863605 -3.018937,4.431546 -3.018937,7.259505 v 28.108362 c 0,2.827959 1.155784,5.395385 3.015319,7.258989 1.863605,1.863605 4.43103,3.019454 7.258989,3.019454 h 29.447298 c 2.82796,0 5.395382,-1.155849 7.258988,-3.019454 1.863604,-1.863604 3.019454,-4.43103 3.019454,-7.258989 V 28.982729 c 0,-2.827959 -1.15585,-5.3959 -3.019454,-7.259505 -1.863605,-1.863605 -4.431028,-3.018937 -7.258988,-3.018937 z m 0,2.217436 h 29.451433 c 2.213539,0 4.2319,0.907558 5.692676,2.368331 1.460772,1.460773 2.367814,3.475068 2.367814,5.692675 v 24.295675 c -0.382488,1.440429 -1.147087,2.734587 -2.172477,3.759977 -1.326497,1.326495 -3.096895,2.213327 -5.062224,2.408639 l -0.541052,0.03669 c -0.09359,0.004 -0.187077,0.0041 -0.284737,0.0041 H 35.278418 c -2.294919,0 -4.378477,-0.935792 -5.892147,-2.449463 -1.02539,-1.02539 -1.790507,-2.315414 -2.172994,-3.755843 V 28.982729 c 0,-2.213539 0.907559,-4.231902 2.368332,-5.692675 1.460772,-1.460773 3.475068,-2.368331 5.692675,-2.368331 z"
     transform="matrix(1.1999988,0,0,1.1999988,-9.99994,-1.644241)"
     inkscape:label="key" /><g
     id="g3"
     transform="matrix(1.5,0,0,1.5,31.999999,28.336999)"
     inkscape:label="snowflake"><polygon
       points="19.995,12 15.455,10 15.995,5 11.995,8 7.995,5 8.535,10 3.995,12 8.535,14 7.995,19 11.995,16 15.995,19.03 15.455,14 "
       style="display:inline;fill:#c2dced"
       id="polygon1" /><polygon
       points="13.855,13.07 14.135,15.74 12.005,14.12 9.855,15.73 10.135,13.07 7.715,12 10.135,10.93 9.855,8.27 11.995,9.88 14.135,8.27 13.855,10.93 16.275,12 "
       style="display:inline;opacity:0.3;fill:#ffffff;enable-background:new"
       id="polygon2" /><path
       d="m 22.245,13.54 -3.25,1.88 -2.4,-1.37 3.61,-1.59 c 0.254,-0.108 0.372,-0.402 0.264,-0.656 -0.051,-0.119 -0.145,-0.213 -0.264,-0.264 l -3.62,-1.59 2.41,-1.37 3.26,1.89 c 0.076,0.045 0.162,0.07 0.25,0.07 C 22.781,10.537 23.003,10.311 23,10.035 22.998,9.86 22.905,9.699 22.755,9.61 L 19.995,8 22.295,6.68 C 22.535,6.542 22.618,6.235 22.48,5.995 22.342,5.755 22.035,5.672 21.795,5.81 l -2.32,1.33 V 4 c 0,-0.276 -0.224,-0.5 -0.5,-0.5 v 0 c -0.276,0 -0.5,0.224 -0.5,0.5 v 3.74 l -2.42,1.36 0.43,-4 C 16.514,4.825 16.314,4.579 16.04,4.551 15.913,4.538 15.787,4.573 15.685,4.65 L 12.495,7 V 4.29 l 3.25,-1.86 C 15.985,2.292 16.068,1.985 15.93,1.745 15.792,1.505 15.485,1.422 15.245,1.56 v 0 l -2.75,1.58 V 0.5 c 0,-0.276 -0.224,-0.5 -0.5,-0.5 -0.276,0 -0.5,0.224 -0.5,0.5 V 3.14 L 8.745,1.57 C 8.505,1.432 8.198,1.515 8.06,1.755 7.922,1.995 8.005,2.302 8.245,2.44 l 3.25,1.85 V 7 L 8.295,4.6 C 8.075,4.433 7.762,4.475 7.594,4.695 7.517,4.797 7.482,4.923 7.495,5.05 l 0.43,4 L 5.505,7.71 5.525,4 c 0,-0.276 -0.224,-0.5 -0.5,-0.5 h -0.03 c -0.276,0 -0.5,0.224 -0.5,0.5 V 7.14 L 2.195,5.82 C 1.955,5.682 1.648,5.765 1.51,6.005 1.372,6.245 1.455,6.552 1.695,6.69 L 3.995,8 1.245,9.6 c -0.237,0.141 -0.316,0.448 -0.175,0.685 0.089,0.15 0.25,0.243 0.425,0.245 0.088,0 0.174,-0.025 0.25,-0.07 l 3.25,-1.88 2.4,1.37 -3.6,1.59 c -0.254,0.108 -0.372,0.402 -0.264,0.656 0.051,0.119 0.145,0.213 0.264,0.264 l 3.61,1.59 -2.41,1.37 -3.25,-1.88 C 1.505,13.402 1.198,13.485 1.06,13.725 0.922,13.965 1.005,14.272 1.245,14.41 l 2.75,1.59 -2.3,1.32 c -0.24,0.138 -0.323,0.445 -0.185,0.685 0.138,0.24 0.445,0.323 0.685,0.185 l 2.31,-1.32 V 20 c 0,0.276 0.224,0.5 0.5,0.5 h -0.01 c 0.276,0 0.5,-0.224 0.5,-0.5 v -3.74 l 2.44,-1.36 -0.43,4 c -0.029,0.275 0.171,0.521 0.445,0.549 0.127,0.013 0.253,-0.022 0.355,-0.099 L 11.495,17 v 2.71 l -3.25,1.86 c -0.24,0.138 -0.323,0.445 -0.185,0.685 0.138,0.24 0.445,0.323 0.685,0.185 l 2.75,-1.57 v 2.63 c 0,0.276 0.224,0.5 0.5,0.5 0.276,0 0.5,-0.224 0.5,-0.5 v -2.64 l 2.75,1.57 c 0.076,0.045 0.162,0.07 0.25,0.07 0.276,-0.003 0.498,-0.229 0.495,-0.505 -0.002,-0.175 -0.095,-0.336 -0.245,-0.425 l -3.25,-1.86 V 17 l 3.2,2.42 c 0.22,0.167 0.533,0.125 0.701,-0.095 0.077,-0.101 0.113,-0.228 0.099,-0.355 l -0.43,-4.08 2.42,1.39 v 3.74 c 0,0.276 0.224,0.5 0.5,0.5 v 0 c 0.276,0 0.5,-0.224 0.5,-0.5 v -3.16 l 2.31,1.32 c 0.24,0.138 0.547,0.055 0.685,-0.185 0.138,-0.24 0.055,-0.547 -0.185,-0.685 l -2.3,-1.31 2.76,-1.6 c 0.24,-0.138 0.323,-0.445 0.185,-0.685 -0.138,-0.24 -0.445,-0.323 -0.685,-0.185 z m -3.49,-1.54 -3.25,1.43 -2.51,-1.43 2.5,-1.43 z m -3.38,-5.91 -0.38,3.62 -2.5,1.43 V 8.25 Z m -6.76,0 2.88,2.16 v 2.89 l -2.5,-1.43 z m -3.38,5.91 3.25,-1.43 2.51,1.43 -2.5,1.43 z m 3.38,5.91 0.38,-3.62 2.49,-1.43 v 2.89 z m 6.76,0 -2.88,-2.16 v -2.89 l 2.5,1.43 z"
       style="display:inline;fill:#3b4252;fill-opacity:1"
       id="path2" /><linearGradient
       gradientTransform="matrix(1,0,0,-1,0,24)"
       gradientUnits="userSpaceOnUse"
       id="linearGradient4"
       x1="1.0856"
       x2="22.9044"
       y1="17.089701"
       y2="6.9102998"><stop
         offset="0"
         style="stop-color:#FFFFFF;stop-opacity:0.2"
         id="stop1" /><stop
         offset="1"
         style="stop-color:#FFFFFF;stop-opacity:0"
         id="stop4" /></linearGradient><path
       d="m 22.245,13.54 -3.25,1.88 -2.4,-1.37 3.61,-1.59 c 0.254,-0.108 0.372,-0.402 0.264,-0.656 -0.051,-0.119 -0.145,-0.213 -0.264,-0.264 l -3.62,-1.59 2.41,-1.37 3.26,1.89 c 0.076,0.045 0.162,0.07 0.25,0.07 C 22.781,10.537 23.003,10.311 23,10.035 22.998,9.86 22.905,9.699 22.755,9.61 L 19.995,8 22.295,6.68 C 22.535,6.542 22.618,6.235 22.48,5.995 22.342,5.755 22.035,5.672 21.795,5.81 l -2.32,1.33 V 4 c 0,-0.276 -0.224,-0.5 -0.5,-0.5 v 0 c -0.276,0 -0.5,0.224 -0.5,0.5 v 3.74 l -2.42,1.36 0.43,-4 C 16.514,4.825 16.314,4.579 16.04,4.551 15.913,4.538 15.787,4.573 15.685,4.65 L 12.495,7 V 4.29 l 3.25,-1.86 C 15.985,2.292 16.068,1.985 15.93,1.745 15.792,1.505 15.485,1.422 15.245,1.56 v 0 l -2.75,1.58 V 0.5 c 0,-0.276 -0.224,-0.5 -0.5,-0.5 -0.276,0 -0.5,0.224 -0.5,0.5 V 3.14 L 8.745,1.57 C 8.505,1.432 8.198,1.515 8.06,1.755 7.922,1.995 8.005,2.302 8.245,2.44 l 3.25,1.85 V 7 L 8.295,4.6 C 8.075,4.433 7.762,4.475 7.594,4.695 7.517,4.797 7.482,4.923 7.495,5.05 l 0.43,4 L 5.505,7.71 5.525,4 c 0,-0.276 -0.224,-0.5 -0.5,-0.5 h -0.03 c -0.276,0 -0.5,0.224 -0.5,0.5 V 7.14 L 2.195,5.82 C 1.955,5.682 1.648,5.765 1.51,6.005 1.372,6.245 1.455,6.552 1.695,6.69 L 3.995,8 1.245,9.6 c -0.237,0.141 -0.316,0.448 -0.175,0.685 0.089,0.15 0.25,0.243 0.425,0.245 0.088,0 0.174,-0.025 0.25,-0.07 l 3.25,-1.88 2.4,1.37 -3.6,1.59 c -0.254,0.108 -0.372,0.402 -0.264,0.656 0.051,0.119 0.145,0.213 0.264,0.264 l 3.61,1.59 -2.41,1.37 -3.25,-1.88 C 1.505,13.402 1.198,13.485 1.06,13.725 0.922,13.965 1.005,14.272 1.245,14.41 l 2.75,1.59 -2.3,1.32 c -0.24,0.138 -0.323,0.445 -0.185,0.685 0.138,0.24 0.445,0.323 0.685,0.185 l 2.31,-1.32 V 20 c 0,0.276 0.224,0.5 0.5,0.5 h -0.01 c 0.276,0 0.5,-0.224 0.5,-0.5 v -3.74 l 2.44,-1.36 -0.43,4 c -0.029,0.275 0.171,0.521 0.445,0.549 0.127,0.013 0.253,-0.022 0.355,-0.099 L 11.495,17 v 2.71 l -3.25,1.86 c -0.24,0.138 -0.323,0.445 -0.185,0.685 0.138,0.24 0.445,0.323 0.685,0.185 l 2.75,-1.57 v 2.63 c 0,0.276 0.224,0.5 0.5,0.5 0.276,0 0.5,-0.224 0.5,-0.5 v -2.64 l 2.75,1.57 c 0.076,0.045 0.162,0.07 0.25,0.07 0.276,-0.003 0.498,-0.229 0.495,-0.505 -0.002,-0.175 -0.095,-0.336 -0.245,-0.425 l -3.25,-1.86 V 17 l 3.2,2.42 c 0.22,0.167 0.533,0.125 0.701,-0.095 0.077,-0.101 0.113,-0.228 0.099,-0.355 l -0.43,-4.08 2.42,1.39 v 3.74 c 0,0.276 0.224,0.5 0.5,0.5 v 0 c 0.276,0 0.5,-0.224 0.5,-0.5 v -3.16 l 2.31,1.32 c 0.24,0.138 0.547,0.055 0.685,-0.185 0.138,-0.24 0.055,-0.547 -0.185,-0.685 l -2.3,-1.31 2.76,-1.6 c 0.24,-0.138 0.323,-0.445 0.185,-0.685 -0.138,-0.24 -0.445,-0.323 -0.685,-0.185 z"
       style="display:inline;fill:url(#SVGID_1_)"
       id="path3" /></g><metadata
     id="metadata1"><rdf:RDF><cc:License
         rdf:about="http://creativecommons.org/licenses/by-nc-sa/4.0/"><cc:permits
           rdf:resource="http://creativecommons.org/ns#Reproduction" /><cc:permits
           rdf:resource="http://creativecommons.org/ns#Distribution" /><cc:requires
           rdf:resource="http://creativecommons.org/ns#Notice" /><cc:requires
           rdf:resource="http://creativecommons.org/ns#Attribution" /><cc:prohibits
           rdf:resource="http://creativecommons.org/ns#CommercialUse" /><cc:permits
           rdf:resource="http://creativecommons.org/ns#DerivativeWorks" /><cc:requires
           rdf:resource="http://creativecommons.org/ns#ShareAlike" /></cc:License><cc:Work
         rdf:about=""><cc:license
           rdf:resource="http://creativecommons.org/licenses/by-nc-sa/4.0/" /></cc:Work></rdf:RDF></metadata></svg>
